<svg id="Capa_1" data-name="Capa 1" xmlns="http://www.w3.org/2000/svg" viewBox="0 0 512 512"><defs><style>.cls-1{fill:#7e85dd;}</style></defs><title>ankle</title><rect class="cls-1" x="374.44" y="3.64" width="30.67" height="32" transform="translate(268.08 390.45) rotate(-74.72)"/><rect class="cls-1" x="357.12" y="64.73" width="31.98" height="32" transform="translate(196.88 419.36) rotate(-74.72)"/><path class="cls-1" d="M472.85,405.56v.08l-79.1-22.57-31.2-202.82L373.75,139l-30.86-8.41-13.06,47.86,35.36,229.78L464,436.43a21.93,21.93,0,0,1-6,43H335.42a50.63,50.63,0,0,1-44.21-26l-18.68-33.6A307.35,307.35,0,0,0,135.48,291l-86-41.09A58,58,0,0,1,32,208.46a59.33,59.33,0,0,1,54.92-59.69l54.4-4.19L191,12l-30-11.2-42.54,113.4-34.09,2.63A91,91,0,0,0,0,208.46,89.91,89.91,0,0,0,29.41,275l92.28,44.79A275.53,275.53,0,0,1,244.62,435.31l18.69,33.59a82.56,82.56,0,0,0,72.17,42.46H458a53.93,53.93,0,0,0,14.82-105.8Z"/><path class="cls-1" d="M176,158.21v32a48,48,0,0,0,48,48h32v-32H224a16,16,0,0,1-16-16v-32Z"/></svg>