<svg id="Capa_1" data-name="Capa 1" xmlns="http://www.w3.org/2000/svg" viewBox="0 0 455.4 455.4"><defs><style>.cls-1{fill:#494e70;}.cls-2{opacity:0.2;}.cls-3{fill:#fff;}</style></defs><title>minus</title><path class="cls-1" d="M405.5,412.8c-69.7,56.9-287.3,56.9-355.6,0-69.7-56.9-62.6-300.1,0-364.1s293-64,355.6,0S475.2,355.9,405.5,412.8Z"/><g class="cls-2"><path class="cls-3" d="M229.1,313.2C166.6,363,96.9,388.6,31.4,390-16.9,307.5-7,107,49.9,48.7,101.1-3.9,261.8-13.9,354.3,18.8,377,112.7,330.1,232.1,229.1,313.2Z"/></g><path class="cls-3" d="M362.8,227.9a25.52,25.52,0,0,1-25.6,25.6h-219a25.6,25.6,0,0,1,0-51.2H338.6C351.4,202.3,362.8,213.7,362.8,227.9Z"/></svg>