<svg id="Capa_1" data-name="Capa 1" xmlns="http://www.w3.org/2000/svg" viewBox="0 0 512 512"><defs><style>.cls-1{fill:#7e85dd;}</style></defs><title>muscle</title><path class="cls-1" d="M430.05,248.34c-2.91-5.35-6.66-12.15-11.2-19.56A32.57,32.57,0,0,1,446.27,208,32,32,0,0,1,480,238.23c0,.59.05,1.18.05,1.77h32a64.35,64.35,0,0,0-20-46.4,62.44,62.44,0,0,0-93.4,7.22A103.76,103.76,0,0,0,320,160a115.2,115.2,0,0,0-104,57.6L237.12,112h53.55A45.37,45.37,0,0,0,336,66.67,66.73,66.73,0,0,0,269.33,0H183.89L13,233a67.29,67.29,0,0,0-1,78.08A348.1,348.1,0,0,0,237.73,447.84C342,462.67,400.93,436.1,432,419.63V512h32V384H430.67l-6.88,3.7c-25.76,14-79.31,43.2-181.52,28.46a317.44,317.44,0,0,1-204-123.36,35.2,35.2,0,0,1,.57-40.91L200.11,32h69.22A34.71,34.71,0,0,1,304,66.67,13.35,13.35,0,0,1,290.67,80H210.88L177.6,246.83l47.73,18L232.11,253C248.42,224.4,267,192,320,192c37.71,0,62.59,36.24,81.95,71.66,17.6,32.08,66.6,67.8,68.68,69.32l18.75-26A248.75,248.75,0,0,1,430.05,248.34Z"/><path class="cls-1" d="M296,356.18v32a216.75,216.75,0,0,0,112.59-28.6l-15.28-28.12A184.79,184.79,0,0,1,296,356.18Z"/><path class="cls-1" d="M95.62,262.62l-25,20.07a295.28,295.28,0,0,0,106.74,81.79l13-29.25A261.58,261.58,0,0,1,95.62,262.62Z"/><path class="cls-1" d="M209.3,376.29a260.28,260.28,0,0,0,33.21,7.55l5-31.58a234.27,234.27,0,0,1-29.13-6.63Z"/></svg>