<svg id="Capa_1" data-name="Capa 1" xmlns="http://www.w3.org/2000/svg" viewBox="0 0 455.43 455.43"><defs><style>.cls-1{fill:#8dc640;}.cls-2{opacity:0.2;}.cls-3{fill:#fff;}</style></defs><title>plus</title><path class="cls-1" d="M405.49,412.76c-69.69,56.89-287.29,56.89-355.55,0-69.69-56.88-62.58-300.08,0-364.08s293-64,355.55,0S475.18,355.88,405.49,412.76Z"/><g class="cls-2"><path class="cls-3" d="M229.14,313.21C166.56,363,96.87,388.59,31.45,390-16.91,307.52-6.95,107,49.94,48.68,101.14-3.95,261.85-13.9,354.29,18.81,377.05,112.68,330.12,232.14,229.14,313.21Z"/></g><path class="cls-3" d="M362.83,227.88a25.5,25.5,0,0,1-25.6,25.6H251.89v85.33a25.6,25.6,0,1,1-51.2,0V253.48H115.36a25.6,25.6,0,0,1,0-51.2h85.33V116.94a25.6,25.6,0,1,1,51.2,0v85.34h85.34A25.49,25.49,0,0,1,362.83,227.88Z"/></svg>